# xmcd
#
# Track frame offsets: 
#        150
#        18112
#        32656
#        44680
#        67759
#        81657
#        96033
#        116118
#        133506
#        148394
#        164407
#
# Disc length: 2544 seconds
#
# Revision: 0
# Processed by: cddbd v1.5.2PL0 Copyright (c) Steve Scherf et al.
# Submitted via: ExactAudioCopy v1.0b1
#
DISCID=9909ee0b
DTITLE=Iwan Fals - Belum Ada Judul
DYEAR=1992
DGENRE=Pop
TTITLE0=Belum Ada Judul
TTITLE1=Besar Dan Kecil
TTITLE2=Iya Atau Tidak
TTITLE3=Mereka Ada Dijalan
TTITLE4=Potret
TTITLE5=Di Mata Air Tidak Ada Air Mata
TTITLE6=Ikrar
TTITLE7=Aku Disini
TTITLE8=Mencetak Sawah
TTITLE9=Panggilan Dari Gunung
TTITLE10=Coretan Dinding
EXTD=
EXTT0=
EXTT1=
EXTT2=
EXTT3=
EXTT4=
EXTT5=
EXTT6=
EXTT7=
EXTT8=
EXTT9=
EXTT10=
PLAYORDER=
